<?xml version="1.0" encoding="iso-8859-1"?>
<!-- Generator: Adobe Illustrator 19.0.0, SVG Export Plug-In . SVG Version: 6.00 Build 0)  -->
<svg version="1.0" id="octopus" xmlns="http://www.w3.org/2000/svg" xmlns:xlink="http://www.w3.org/1999/xlink" x="0px" y="0px"
	 viewBox="0 0 511.997 511.997" style="enable-background:new 0 0 511.997 511.997;" xml:space="preserve">
<path style="fill:#F26B5C;" d="M450.968,238.087l-10.989-6.59c14.189-21.279,21.759-46.287,21.759-71.866v-24.719
	c0-10.279,4.08-20.129,11.349-27.398c11.414-11.414,24.611-8.107,28.648-8.65c-5.287-4.103-14.686-19.999-36.048-19.999
	c-14.679,0-28.098,8.29-34.658,21.419l-2.46,4.92c-4.49,8.979-6.83,18.889-6.83,28.928c0,27.628-15.729,52.827-40.488,64.966
	c-14.899-16.529-23.549-42.368-16.039-63.597c7.25-20.489,4.91-43.148-6.37-61.727c-12.639-20.809-35.458-34.908-63.097-34.908
	h-79.996c-28.588,0-52.337,14.719-64.946,37.178c-9.929,17.679-12.039,38.738-5.72,58.007c6.91,21.049-3.55,47.597-16.429,64.166
	c-23.779-12.489-38.738-37.138-38.738-64.076c0-19.117-8.219-31.113-9.289-33.858C74.059,87.155,60.65,78.866,45.97,78.866
	c-21.402,0-30.736,15.877-36.048,19.999c4.033,0.543,17.367-2.632,28.648,8.65c7.27,7.27,11.189,17.119,11.189,27.398v24.799
	c0,25.529,7.71,50.477,21.869,71.716l-11.099,6.66c-35.059,21.039-60.395,64.464-47.027,104.024
	c7.74,22.899,26.589,40.278,50.037,46.147c26.289,6.57,54.097-1.13,73.266-20.299l9.109-9.109h-13.749
	c-17.259,0-34.288-4.02-49.737-11.739c-23.827-11.913-21.274-46.672,3.9-55.057l0.02-0.01c25.329-8.45,58.827-6.48,82.715,5.46
	l13.979,7h0.01l11.019,99.245c1.06,9.539-2.27,19.049-9.06,25.839c-5.93,5.93-13.969,9.26-22.349,9.26h-26.909l41.978,27.988
	c24.768,16.519,58.017-1.314,58.017-31.048V307.133c0-11.049,8.96-19.999,19.999-19.999s19.999,8.96,19.999,19.999v128.653
	c0,29.768,33.283,47.544,58.017,31.048l41.978-27.988h-26.909c-8.38,0-16.419-3.33-22.349-9.26
	c-6.79-6.79-10.119-16.299-9.06-25.839l11.029-99.335h0.01l13.809-6.91c23.889-11.939,57.547-13.909,82.875-5.46
	c25.25,8.424,27.626,43.214,3.92,55.067c-15.449,7.72-32.478,11.739-49.737,11.739h-13.749l9.109,9.109
	c38.551,38.551,105.647,26.39,123.303-25.849C511.372,302.528,485.971,259.092,450.968,238.087z"/>
<path d="M295.997,148.862c-5.52,0-9.999,4.48-9.999,9.999c0,5.52,4.48,9.999,9.999,9.999c5.52,0,9.999-4.48,9.999-9.999
	C305.996,153.341,301.516,148.862,295.997,148.862z"/>
<path d="M216.001,148.862c-5.52,0-9.999,4.48-9.999,9.999c0,5.52,4.48,9.999,9.999,9.999s9.999-4.48,9.999-9.999
	C226.001,153.341,221.521,148.862,216.001,148.862z"/>
<path d="M4.064,294.08c-14.496,44.062,10.995,92.289,57.302,103.88c29.757,7.436,61.409-1.577,82.76-22.93l9.109-9.109
	c2.86-2.86,3.716-7.161,2.168-10.897c-1.548-3.737-5.194-6.173-9.238-6.173h-13.749c-15.625,0-31.278-3.695-45.267-10.684
	c-6.773-3.387-10.98-10.201-10.98-17.805c0-8.555,5.453-16.118,13.568-18.821c0.077-0.026,0.154-0.053,0.231-0.081
	c23.014-7.604,53.768-5.562,74.869,4.984l9.126,4.57l10.421,93.838c1.426,12.825-8.608,23.995-21.47,23.995h-26.909
	c-4.407,0-8.294,2.884-9.57,7.102c-1.277,4.217,0.357,8.773,4.023,11.217l41.977,27.987c31.072,20.725,73.564-1.237,73.564-39.368
	V307.133c0-5.514,4.486-9.999,9.999-9.999c5.521,0,9.999,4.479,9.999,9.999v128.653c0,38.23,42.634,59.996,73.563,39.369
	l41.978-27.988c3.667-2.445,5.3-7.001,4.023-11.217c-1.277-4.218-5.164-7.102-9.57-7.102h-26.909
	c-12.849,0-22.897-11.156-21.47-23.996l10.431-93.925l8.949-4.478c21.207-10.599,52.149-12.622,75.241-4.918
	c16.824,5.612,18.379,28.753,2.615,36.636c-13.989,6.991-29.643,10.685-45.269,10.685H365.83c-4.044,0-7.691,2.437-9.238,6.173
	s-0.692,8.038,2.168,10.897l9.109,9.109c21.406,21.405,53.076,30.348,82.765,22.929c46.263-11.581,71.805-59.786,57.299-103.877
	c-8.876-27.008-27.191-49.938-51.575-64.57l-2.329-1.397c11.774-20.873,17.955-44.343,17.955-68.483v-24.719
	c0-7.679,2.991-14.897,8.421-20.328c3.689-3.689,8.593-5.721,13.808-5.721h7.77c4.044,0,7.691-2.437,9.239-6.173
	c1.548-3.737,0.692-8.038-2.167-10.897l-8.65-8.65c-9.207-9.207-21.449-14.278-34.469-14.278c-18.59,0-35.298,10.326-43.602,26.947
	c-1.038,2.686-10.345,16.651-10.345,38.32c0,20.951-10.781,40.602-28.008,52.029c-10.29-14.778-14.047-33.317-9.092-47.324
	C393.59,85.986,355.2,28.868,295.997,28.868h-79.996c-59.546,0-97.222,56.305-80.167,108.303
	c4.792,14.595-1.126,33.437-9.768,47.568c-16.161-11.622-25.899-30.316-25.899-50.597c0-21.619-9.333-35.709-10.346-38.333
	C81.504,79.191,64.798,68.866,46.22,68.866c-13.02,0-25.262,5.071-34.469,14.278l-8.65,8.65c-2.86,2.86-3.715,7.162-2.167,10.897
	c1.548,3.737,5.194,6.173,9.238,6.173h7.77c5.215,0,10.119,2.032,13.808,5.721c5.328,5.327,8.261,12.545,8.261,20.328v24.799
	c0,23.973,6.218,47.393,18.062,68.338C56.784,229.165,19.469,247.201,4.064,294.08z M431.989,134.133
	c0-16.303,7.16-26.644,8.236-29.379c4.896-9.8,14.749-15.888,25.713-15.888c4.575,0,8.987,1.062,12.954,3.069
	c-4.661,1.959-8.943,4.827-12.625,8.51c-9.207,9.207-14.278,21.449-14.278,34.469v24.719c0,20.568-5.242,40.563-15.219,58.37
	c-33.448-14.785-33.649-14.197-38.503-17.425C419.11,185.232,431.989,160.454,431.989,134.133z M154.836,130.937
	c-12.784-38.981,15.148-82.07,61.165-82.07h79.996c45.289,0,74.17,43.364,60.04,83.3c-9.409,26.598,2.28,56.143,18.035,73.622
	c0.028,0.031,0.058,0.06,0.086,0.091c0.055,0.059,0.11,0.118,0.166,0.175c15.257,16.781,27.579,17.284,54.755,30.407l16.995,10.196
	c20.265,12.16,35.487,31.218,42.865,53.667c10.895,33.118-8.22,69.484-43.153,78.229c-18.981,4.743-39.131,0.818-54.918-10.241
	c14.891-1.407,29.543-5.575,42.925-12.261c31.708-15.852,28.434-62.267-5.227-73.496c-27.341-9.12-62.422-7.111-88.219,4.899
	c1.549-35.699-11.771-70.161-37.277-95.668c-3.905-3.906-10.236-3.906-14.142,0c-3.905,3.905-3.905,10.236,0,14.141
	c23.26,23.26,34.515,55.349,30.881,88.037l-12.069,108.676c-2.56,23.038,13.997,42.941,35.782,45.835l-15.053,10.037
	c-17.933,11.957-42.47-0.721-42.47-22.73V307.133c0-16.574-13.423-29.998-29.998-29.998c-16.541,0-29.998,13.457-29.998,29.998
	v128.653c0,21.932-24.467,34.736-42.471,22.729l-15.052-10.036c21.778-2.894,38.343-22.792,35.782-45.834l-12.069-108.675
	c-3.635-32.69,7.621-64.779,30.88-88.039c3.905-3.905,3.905-10.236,0-14.141c-3.905-3.906-10.236-3.906-14.142,0
	c-25.525,25.525-38.846,60.019-37.274,95.747c-25.77-12.058-60.879-14.097-88.223-4.978c-0.087,0.029-0.175,0.06-0.263,0.092
	c-16.162,5.499-27.001,20.62-27.001,37.732c0,15.207,8.444,28.876,22.039,35.673c13.379,6.686,28.031,10.853,42.924,12.26
	c-15.787,11.06-35.938,14.986-54.915,10.242c-34.843-8.723-54.08-45.026-43.156-78.233c14.716-44.782,51.961-57.631,59.854-63.86
	l33.443-14.56c8.384-3.651,15.596-11.359,20.234-17.287c0.041-0.049,0.079-0.101,0.12-0.152c0.029-0.037,0.06-0.075,0.089-0.112
	C151.548,185.385,162.843,155.325,154.836,130.937z M33.266,91.934c3.968-2.007,8.38-3.069,12.954-3.069
	c10.956,0,20.81,6.091,25.718,15.898c1.032,2.623,8.231,13.069,8.231,29.379c0,26.37,12.47,50.696,33.217,66.088
	c-1.81,1.538-3.52,2.69-5.011,3.339l-33.031,14.382c-10.053-17.881-15.334-37.834-15.334-58.24v-24.799
	c0-13.123-5.014-25.365-14.118-34.469C42.209,96.761,37.927,93.894,33.266,91.934z"/>
<path d="M292.566,94.201c9.73,3.073,18.206,7.379,24.51,12.453c4.33,3.486,10.619,2.756,14.059-1.519
	c3.463-4.302,2.783-10.596-1.519-14.059c-8.222-6.618-18.95-12.131-31.027-15.945c-5.266-1.662-10.883,1.257-12.546,6.524
	S287.3,92.538,292.566,94.201z"/>
<path d="M194.923,106.654c6.304-5.075,14.779-9.38,24.51-12.453c5.267-1.663,8.188-7.28,6.524-12.546
	c-1.664-5.267-7.283-8.188-12.546-6.524c-12.077,3.814-22.807,9.327-31.027,15.945c-4.302,3.463-4.982,9.757-1.519,14.059
	C184.315,109.423,190.608,110.128,194.923,106.654z"/>
<g>
</g>
<g>
</g>
<g>
</g>
<g>
</g>
<g>
</g>
<g>
</g>
<g>
</g>
<g>
</g>
<g>
</g>
<g>
</g>
<g>
</g>
<g>
</g>
<g>
</g>
<g>
</g>
<g>
</g>
</svg>
